<svg width="35" height="25" viewBox="0 0 35 25" fill="none" xmlns="http://www.w3.org/2000/svg">
    <path d="M30.9896 0.00012207H4.01057C1.79823 0.00012207 6.10352e-05 1.71267 6.10352e-05 3.81965V21.1806C6.10352e-05 23.2876 1.79823 25.0001 4.01057 25.0001H30.9896C33.2019 25.0001 35.0001 23.2876 35.0001 21.1806V3.81965C35.0001 1.71267 33.2019 0.00012207 30.9896 0.00012207ZM10.9376 5.55559C12.9472 5.55559 14.5833 7.11402 14.5833 9.02798C14.5833 10.9417 12.9472 12.5001 10.9376 12.5001C8.9279 12.5001 7.29182 10.9417 7.29182 9.02798C7.29182 7.11402 8.9279 5.55559 10.9376 5.55559ZM17.5001 18.403C17.5001 18.978 17.0101 19.4447 16.4063 19.4447H5.46881C4.86506 19.4447 4.37506 18.978 4.37506 18.403V17.7085C4.37506 15.6015 6.17323 13.8889 8.38557 13.8889H13.4896C15.7019 13.8889 17.5001 15.6015 17.5001 17.7085V18.403ZM29.5313 19.4447H21.5106C20.9068 19.4447 20.4168 18.978 20.4168 18.403C20.4168 17.828 20.9068 17.3613 21.5106 17.3613H29.5313C30.1351 17.3613 30.6251 17.828 30.6251 18.403C30.6251 18.978 30.1351 19.4447 29.5313 19.4447ZM29.5313 13.8889H21.5106C20.9068 13.8889 20.4168 13.4223 20.4168 12.8473C20.4168 12.2723 20.9068 11.8056 21.5106 11.8056H29.5313C30.1351 11.8056 30.6251 12.2723 30.6251 12.8473C30.6251 13.4223 30.1351 13.8889 29.5313 13.8889ZM29.5313 8.33346H21.5106C20.9068 8.33346 20.4168 7.86679 20.4168 7.29179C20.4168 6.71679 20.9068 6.25012 21.5106 6.25012H29.5313C30.1351 6.25012 30.6251 6.71679 30.6251 7.29179C30.6251 7.86679 30.1351 8.33346 29.5313 8.33346Z"
          fill="#F6A325"/>
</svg>
