<svg width="19" height="25" viewBox="0 0 19 25" fill="none" xmlns="http://www.w3.org/2000/svg">
    <path d="M3.86001 25H14.5087C14.7972 25 15.0313 24.7659 15.0313 24.4774V22.9094C15.0313 22.6209 14.7972 22.3868 14.5087 22.3868H3.86001C3.1722 22.3868 2.61323 21.8273 2.61323 21.14L2.61323 3.86C2.61323 3.17246 3.17273 2.61323 3.86001 2.61323H14.5087C14.7972 2.61323 15.0313 2.37909 15.0313 2.09059V0.522648C15.0313 0.234148 14.7972 0 14.5087 0H3.86001C1.73127 0 1.90735e-06 1.73179 1.90735e-06 3.86L1.90735e-06 21.1397C1.90735e-06 23.2682 1.73153 25 3.86001 25Z"
          fill="#F6A325"/>
    <g clip-path="url(#clip0)">
        <path d="M18.7603 11.9172L13.3433 6.50001C13.1886 6.34538 12.9825 6.2605 12.7628 6.2605C12.5428 6.2605 12.3368 6.3455 12.1822 6.50001L11.6904 6.99196C11.5358 7.14634 11.4507 7.35256 11.4507 7.57244C11.4507 7.79219 11.5358 8.00536 11.6904 8.15975L14.8506 11.3269H4.81042C4.35774 11.3269 4.00006 11.6813 4.00006 12.1341V12.8296C4.00006 13.2824 4.35774 13.6725 4.81042 13.6725H14.8864L11.6905 16.8574C11.536 17.012 11.4509 17.2126 11.4509 17.4325C11.4509 17.6521 11.536 17.8556 11.6905 18.0102L12.1823 18.5005C12.3369 18.6552 12.5429 18.7394 12.7629 18.7394C12.9827 18.7394 13.1888 18.6541 13.3434 18.4994L18.7604 13.0824C18.9154 12.9273 19.0007 12.7202 19.0001 12.5001C19.0005 12.2792 18.9154 12.072 18.7603 11.9172Z"
              fill="#F6A325"/>
    </g>
    <defs>
        <clipPath id="clip0">
            <rect width="15" height="15" fill="white" transform="translate(4.00006 5)"/>
        </clipPath>
    </defs>
</svg>
