<svg width="217" height="42" viewBox="0 0 217 42" fill="none" xmlns="http://www.w3.org/2000/svg">
    <path d="M32.8679 3.362C32.8679 1.634 31.5719 0.0139966 29.5739 0.0139966C27.1439 0.0139966 26.3339 2.066 25.6319 4.928C25.4699 5.144 24.3899 10.22 24.5519 9.68C23.6879 12.65 23.2019 17.834 23.2019 21.29L22.6079 21.182C22.2839 19.4 21.9059 13.73 21.5279 11.948C21.3119 10.922 21.1499 10.22 21.0959 9.842C18.3419 8.33 17.6939 7.952 16.3439 7.952C15.1559 7.952 14.5079 8.654 14.3459 10.004C13.9679 11.84 13.7519 12.758 13.7519 13.73C13.6979 13.946 13.6439 14.432 13.4819 15.188C13.3739 15.836 13.2659 20.048 13.1039 21.128L12.5639 21.236C12.1319 17.348 12.1319 14.864 11.3219 10.436C10.9979 8.816 10.7819 7.574 10.7279 6.764C10.6739 5.954 10.6199 5.36 10.6199 5.036V4.388C10.6199 2.606 9.16194 1.094 7.27194 1.094C6.62394 1.094 6.02994 1.256 5.48994 1.634C4.84194 1.148 4.13994 0.877998 3.38394 0.877998C1.49394 0.877998 0.0359375 2.39 0.0359375 4.172C0.0359375 10.544 0.899937 17.24 2.35794 24.854C3.59994 31.766 4.62594 35.06 6.40794 38.138C7.00194 39.164 8.13594 39.704 9.26994 39.704C9.48594 39.704 9.75594 39.704 9.97194 39.65C10.7279 40.406 11.9699 40.676 12.7799 40.676C15.9659 40.676 17.2079 36.356 18.0179 31.442C18.0179 32.144 19.4759 37.922 19.7999 38.732C20.4479 40.244 21.3659 40.946 22.2299 40.946C25.6319 40.946 26.7659 37.436 27.5219 33.764C28.1159 31.118 28.6019 26.15 28.8719 23.396C29.1419 21.074 32.4899 3.848 32.2199 5.846C32.7599 4.28 32.8679 3.902 32.8679 3.362ZM39.8884 22.64C40.4284 22.964 40.9684 23.072 41.5624 23.072C42.6964 23.072 43.6144 22.586 44.2624 21.722C45.6124 21.398 45.6664 21.398 48.6364 21.398C48.9064 21.722 48.9604 21.83 49.2304 22.316C44.0464 22.586 39.1864 29.552 39.1864 35.492C39.1864 39.218 42.4264 41 46.4224 41C48.3124 41 50.2564 40.352 51.9304 39.326C52.5784 40.352 53.4964 40.892 54.7384 40.892C56.5744 40.892 58.0324 39.38 58.0324 37.598V28.526C57.8704 19.832 56.1964 13.352 49.8784 13.352C47.0164 13.352 47.1244 13.46 44.1004 14.27C43.4524 14.432 42.9124 14.81 42.4264 15.35C39.9964 15.944 38.2684 17.834 38.2684 19.778C38.2684 21.074 38.8624 22.046 39.8884 22.64ZM49.6084 28.958H50.3104L50.4184 33.548L49.5544 34.088L48.0964 34.844C47.8804 35.06 47.5564 35.222 47.1244 35.384C46.7464 35.492 46.3684 35.546 45.9904 35.546C45.8284 35.546 45.6664 35.546 45.5584 35.492C45.5584 35.384 45.5584 35.33 45.6124 35.222C45.6124 34.898 46.0444 33.44 46.1524 33.17C46.3144 32.792 46.5844 32.306 46.9084 31.766C47.2864 31.28 47.7724 30.632 48.3664 29.93C48.7984 29.498 49.1224 29.228 49.3384 29.066L49.6084 28.958ZM82.8087 35.384C83.0247 35.438 80.3787 31.226 80.3247 31.01C79.2987 29.066 78.4347 27.338 77.7327 25.88L82.1067 18.914L82.8627 17.132C83.6187 16.052 83.7807 15.89 83.8347 14.756C83.7807 12.92 82.3767 11.408 80.5947 11.408C78.2187 11.408 77.0847 13.568 75.9507 16.43C75.7347 17.024 75.3027 17.834 74.7627 18.806L74.4387 17.726C74.1687 17.24 73.4667 13.892 73.5747 14.108C73.0347 12.866 72.2247 12.002 70.8207 12.002C70.2807 11.084 68.9847 10.382 67.9047 10.382C65.9067 10.382 64.5567 12.002 64.5567 13.676C64.5567 14 64.5567 14.27 64.6647 14.594C63.9087 15.242 63.5307 16.214 63.5307 17.132C63.5307 18.266 64.9887 21.398 68.3367 28.148V28.202C67.2027 29.822 67.2027 29.714 64.0167 35.87C63.6387 36.41 63.4227 37.058 63.4227 37.652C63.4227 39.38 64.8267 41 66.7707 41C67.7967 41 68.8227 40.514 69.5247 39.542L70.0647 38.678C70.3347 38.354 70.5507 37.814 70.9287 37.112C71.1447 36.572 71.4687 35.924 71.9007 35.168C72.3327 36.086 72.8187 37.004 73.3047 37.976C73.5747 38.354 73.8447 38.624 74.0607 38.84C74.3307 39.434 74.7627 39.92 75.3567 40.244L75.6807 40.46C76.2747 40.892 77.2467 41.108 77.8407 41.162C78.7587 41.594 79.2987 41.648 79.7307 41.594C80.0007 41.648 80.3247 41.702 80.5947 41.702C81.1347 41.702 81.6747 41.594 82.1607 41.324C83.2407 40.73 83.8887 39.542 83.8887 38.354C83.8347 37.544 83.5647 36.95 82.8087 35.384ZM112.742 1.634C112.85 1.634 113.336 0.607999 115.766 0.607999C123.326 0.607999 127.7 8.168 127.7 16.43C127.7 26.096 125.216 35.33 117.116 40.46C116.738 40.73 116.144 40.838 115.442 40.838C115.01 41.054 114.524 41.108 114.038 41.108C109.178 41.108 105.452 28.688 105.452 20.696C105.452 14.378 105.992 7.628 106.964 2.93C107.342 1.418 108.746 0.391998 110.258 0.391998C111.068 0.391998 112.04 0.769997 112.742 1.634ZM114.956 7.52C114.524 12.218 114.2 15.404 114.2 18.374C114.2 22.1 114.632 25.61 115.658 31.604C119.33 27.824 121.382 22.532 121.382 17.78C121.382 13.082 119.384 8.924 114.956 7.52ZM143.615 28.364H143.831L146.261 28.418H150.581C151.229 28.418 151.931 28.256 152.633 27.932C153.335 27.662 153.929 27.068 154.307 26.258C154.577 25.718 154.793 25.124 154.847 24.476C154.955 24.044 155.009 23.072 155.009 21.56C155.009 20.372 154.901 19.292 154.685 18.266C154.415 16.916 153.875 15.674 153.065 14.54C152.255 13.298 151.121 12.272 149.771 11.57C149.717 11.57 149.609 11.516 149.393 11.354L149.015 11.138L148.583 10.922C148.313 10.814 148.205 10.76 148.151 10.76C148.097 10.814 147.989 10.76 147.719 10.652C147.503 10.598 147.341 10.544 147.287 10.544H147.233C147.179 10.598 146.963 10.544 146.693 10.49C146.369 10.436 146.153 10.436 146.045 10.49L143.993 10.706C143.399 10.76 142.859 10.976 142.265 11.246C142.103 11.3 141.941 11.408 141.779 11.516C141.023 11.516 140.321 11.624 139.727 11.894C138.917 12.218 138.161 12.758 137.513 13.514C137.135 13.946 136.757 14.432 136.379 15.026C136.001 15.62 135.623 16.322 135.191 17.24C134.705 18.266 134.219 19.832 133.733 21.884C133.247 23.99 133.031 25.502 133.085 26.366C133.139 26.852 133.139 27.662 133.139 28.796L133.085 31.658C133.085 32.684 133.247 33.656 133.517 34.628C133.895 35.87 134.651 37.112 135.893 38.3C137.027 39.38 138.269 40.19 139.619 40.676C140.861 41.162 141.941 41.432 142.913 41.486C143.669 41.54 144.425 41.594 145.127 41.594H146.045C146.639 41.594 147.233 41.432 147.719 41.162C147.881 41.162 148.043 41.162 148.205 41.216C148.907 41.27 149.501 41.324 150.095 41.324C150.473 41.324 150.797 41.324 151.121 41.27C152.255 41.162 153.173 40.838 153.929 40.352L154.739 39.812L155.117 39.542C156.035 38.894 156.575 37.976 156.575 36.734C156.575 36.086 156.413 35.492 156.035 34.952C155.387 34.034 154.469 33.494 153.173 33.494C152.525 33.494 151.931 33.656 151.391 34.034L151.067 34.304C150.851 34.412 150.635 34.52 150.473 34.682C150.149 34.682 149.609 34.628 148.907 34.574C148.367 34.52 147.557 34.25 146.531 33.656C145.559 33.17 144.911 32.684 144.641 32.306C144.317 31.82 144.047 31.172 143.885 30.362C143.777 29.876 143.669 29.174 143.615 28.364ZM144.101 21.722H143.723C143.777 21.182 143.831 20.642 143.939 20.156C144.155 18.968 144.479 18.104 144.857 17.564L145.127 17.24C145.505 17.186 145.775 17.186 146.045 17.132L146.639 17.402C147.017 17.672 147.341 17.942 147.611 18.266C147.881 18.698 148.097 19.13 148.205 19.616C148.313 20.21 148.367 20.966 148.367 21.776H146.261L144.101 21.722ZM163.603 22.64C164.143 22.964 164.683 23.072 165.277 23.072C166.411 23.072 167.329 22.586 167.977 21.722C169.327 21.398 169.381 21.398 172.351 21.398C172.621 21.722 172.675 21.83 172.945 22.316C167.761 22.586 162.901 29.552 162.901 35.492C162.901 39.218 166.141 41 170.137 41C172.027 41 173.971 40.352 175.645 39.326C176.293 40.352 177.211 40.892 178.453 40.892C180.289 40.892 181.747 39.38 181.747 37.598V28.526C181.585 19.832 179.911 13.352 173.593 13.352C170.731 13.352 170.839 13.46 167.815 14.27C167.167 14.432 166.627 14.81 166.141 15.35C163.711 15.944 161.983 17.834 161.983 19.778C161.983 21.074 162.577 22.046 163.603 22.64ZM173.323 28.958H174.025L174.133 33.548L173.269 34.088L171.811 34.844C171.595 35.06 171.271 35.222 170.839 35.384C170.461 35.492 170.083 35.546 169.705 35.546C169.543 35.546 169.381 35.546 169.273 35.492C169.273 35.384 169.273 35.33 169.327 35.222C169.327 34.898 169.759 33.44 169.867 33.17C170.029 32.792 170.299 32.306 170.623 31.766C171.001 31.28 171.487 30.632 172.081 29.93C172.513 29.498 172.837 29.228 173.053 29.066L173.323 28.958ZM194.536 41.54C190.27 41.54 187.57 37.436 187.57 32.738C187.3 30.794 187.138 24.476 187.138 19.562C187.138 17.942 187.192 16.538 187.192 15.404C187.354 6.71 187.192 8.438 187.408 7.628C187.354 7.466 187.354 7.196 187.354 6.926C187.354 6.17 187.462 5.252 187.516 4.766C187.84 2.876 188.326 3.2 190.486 3.2H193.132C194.914 3.2 196.426 4.766 196.426 6.548C196.426 7.25 196.21 7.898 195.778 8.492C195.778 9.68 195.562 11.57 195.562 17.402C195.562 19.184 195.67 25.232 195.724 26.906C195.778 27.716 195.886 28.742 196.048 29.93C196.21 31.226 196.372 32.36 196.426 33.278C196.48 33.602 196.48 33.872 196.534 34.034C196.75 34.52 196.912 35.006 197.02 35.492C197.344 36.572 197.56 37.544 197.56 38.408C197.56 40.298 196.696 41.54 194.536 41.54ZM210.194 40.838C209.384 40.946 208.574 41.054 207.818 41.054C205.442 41.054 203.768 40.244 203.768 37.868C203.768 36.356 204.902 34.736 206.792 34.52L207.332 34.466C207.386 34.25 207.44 34.088 207.44 33.872C207.44 31.172 202.958 23.342 202.958 16.754C202.958 14.162 206.144 10.922 209.06 10.922C209.492 10.922 209.87 10.976 210.248 11.084C211.112 11.03 211.976 10.976 213.65 10.976C215.432 10.976 216.944 12.488 216.944 14.27C216.944 16.052 215.432 17.618 213.65 17.618C211.49 17.618 211.436 17.618 211.058 17.672C211.004 17.78 211.004 17.888 211.004 17.942C211.004 22.91 215.756 23.72 215.756 33.764C215.756 37.598 214.136 40.352 210.194 40.838Z"
          fill="#F7A325"/>
</svg>
